<svg width="70" height="48" viewBox="0 0 70 48" fill="none" xmlns="http://www.w3.org/2000/svg">
<path fill-rule="evenodd" clip-rule="evenodd" d="M16.2797 32C7.28059 32 -4.33622e-06 24.8003 -2.79753e-06 16C-1.25884e-06 7.19971 7.3624 1.28728e-06 16.3615 2.86074e-06C25.3607 4.4342e-06 32.7231 7.19972 32.7231 16C32.7231 33.68 18.0795 48 -8.39258e-06 48C-8.39258e-06 48 10.7172 44.0798 16.2797 32ZM37.2769 16C37.2769 7.19972 44.6393 8.43601e-06 53.6385 1.00095e-05C62.6376 1.15829e-05 70 7.19972 70 16C70 33.68 55.3564 48 37.2769 48C37.2769 48 47.9936 44.0799 53.5567 32C44.5575 32 37.2769 24.7997 37.2769 16Z" fill="#4F5055"/>
</svg>
