<svg width="25" height="25" viewBox="0 0 25 25" fill="none" xmlns="http://www.w3.org/2000/svg">
<path d="M2.08203 2.0835H3.89454C5.01954 2.0835 5.90495 3.05225 5.8112 4.16683L4.94661 14.5418C4.80078 16.2397 6.14452 17.6981 7.85286 17.6981H18.9466C20.4466 17.6981 21.7591 16.4689 21.8737 14.9793L22.4362 7.16683C22.5612 5.43767 21.2487 4.03141 19.5091 4.03141H6.06121" stroke="#303030" stroke-width="1.5" stroke-miterlimit="10" stroke-linecap="round" stroke-linejoin="round"/>
<path d="M16.9271 22.9167C17.6462 22.9167 18.2292 22.3337 18.2292 21.6146C18.2292 20.8955 17.6462 20.3125 16.9271 20.3125C16.208 20.3125 15.625 20.8955 15.625 21.6146C15.625 22.3337 16.208 22.9167 16.9271 22.9167Z" stroke="#303030" stroke-width="1.5" stroke-miterlimit="10" stroke-linecap="round" stroke-linejoin="round"/>
<path d="M8.59505 22.9167C9.31417 22.9167 9.89714 22.3337 9.89714 21.6146C9.89714 20.8955 9.31417 20.3125 8.59505 20.3125C7.87593 20.3125 7.29297 20.8955 7.29297 21.6146C7.29297 22.3337 7.87593 22.9167 8.59505 22.9167Z" stroke="#303030" stroke-width="1.5" stroke-miterlimit="10" stroke-linecap="round" stroke-linejoin="round"/>
<path d="M9.375 8.3335H21.875" stroke="#303030" stroke-width="1.5" stroke-miterlimit="10" stroke-linecap="round" stroke-linejoin="round"/>
</svg>
