<svg width="22" height="21" viewBox="0 0 22 21" fill="none" xmlns="http://www.w3.org/2000/svg">
<path d="M11.7513 0.55725L14.3303 5.78225C14.4021 5.92764 14.5081 6.0534 14.6393 6.14869C14.7705 6.24398 14.9228 6.30595 15.0833 6.32925L20.8493 7.16725C21.034 7.19407 21.2075 7.27205 21.3502 7.39235C21.4929 7.51266 21.599 7.6705 21.6567 7.84801C21.7143 8.02552 21.7211 8.21562 21.6764 8.39681C21.6316 8.57799 21.537 8.74303 21.4033 8.87325L17.2303 12.9402C16.9943 13.1702 16.8873 13.5012 16.9423 13.8252L17.9273 19.5683C17.9588 19.7522 17.9382 19.9412 17.8679 20.114C17.7976 20.2868 17.6803 20.4365 17.5294 20.5462C17.3784 20.6559 17.1998 20.7211 17.0137 20.7345C16.8276 20.748 16.6414 20.7091 16.4763 20.6223L11.3183 17.9103C11.1747 17.8349 11.015 17.7956 10.8528 17.7956C10.6906 17.7956 10.5309 17.8349 10.3873 17.9103L5.22929 20.6223C5.06414 20.7091 4.878 20.748 4.6919 20.7345C4.5058 20.7211 4.32718 20.6559 4.17622 20.5462C4.02526 20.4365 3.90799 20.2868 3.83767 20.114C3.76735 19.9412 3.74678 19.7522 3.77829 19.5683L4.76329 13.8252C4.79071 13.6654 4.77882 13.5014 4.72864 13.3472C4.67847 13.193 4.59151 13.0533 4.47529 12.9402L0.30229 8.87325C0.168587 8.74303 0.0739938 8.57799 0.0292122 8.39681C-0.0155694 8.21562 -0.00875233 8.02552 0.0488922 7.84801C0.106537 7.6705 0.212708 7.51266 0.355395 7.39235C0.498082 7.27205 0.67159 7.19407 0.85629 7.16725L6.62229 6.32925C6.78274 6.30595 6.93513 6.24398 7.06631 6.14869C7.19748 6.0534 7.30352 5.92764 7.37529 5.78225L9.95429 0.55725C10.3243 -0.18575 11.3843 -0.18575 11.7513 0.55725Z" fill="#F59D34"/>
</svg>
