<svg width="43" height="28" viewBox="0 0 43 28" fill="none" xmlns="http://www.w3.org/2000/svg">
<g clip-path="url(#clip0_1_252)">
<path d="M0 0H43V28H0V0Z" fill="white"/>
<path d="M0 0H43V2.15322H0V0ZM0 4.30643H43V6.45965H0V4.30643ZM0 8.61287H43V10.7661H0V8.61287ZM0 12.9193H43V15.0725H0V12.9193ZM0 17.2339H43V19.3871H0V17.2339ZM0 21.5404H43V23.6936H0V21.5404ZM0 25.8468H43V28H0V25.8468Z" fill="#D80027"/>
<path d="M0 0H21.5V15.0725H0V0Z" fill="#2E52B2"/>
<path d="M4.00584 11.3722L3.67056 10.3242L3.30175 11.3722H2.19531L3.09219 12.0026L2.75691 13.0505L3.67056 12.4037L4.55906 13.0505L4.21539 12.0026L5.12904 11.3722H4.00584ZM8.72494 11.3722L8.38128 10.3242L8.02923 11.3722H6.9228L7.81968 12.0026L7.4844 13.0505L8.38128 12.4037L9.28654 13.0505L8.95126 12.0026L9.84814 11.3722H8.72494ZM13.4608 11.3722L13.1004 10.3242L12.7651 11.3722H11.6335L12.5555 12.0026L12.2035 13.0505L13.1004 12.4037L14.0224 13.0505L13.6704 12.0026L14.5672 11.3722H13.4608ZM18.1715 11.3722L17.8362 10.3242L17.4842 11.3722H16.3694L17.2747 12.0026L16.9394 13.0505L17.8362 12.4037L18.7415 13.0505L18.3811 12.0026L19.3031 11.3722H18.1715ZM8.38128 6.16515L8.02923 7.2131H6.9228L7.81968 7.85989L7.4844 8.89147L8.38128 8.25287L9.28654 8.89147L8.95126 7.85989L9.84814 7.2131H8.72494L8.38128 6.16515ZM3.67056 6.16515L3.30175 7.2131H2.19531L3.09219 7.85989L2.75691 8.89147L3.67056 8.25287L4.55906 8.89147L4.21539 7.85989L5.12904 7.2131H4.00584L3.67056 6.16515ZM13.1004 6.16515L12.7651 7.2131H11.6335L12.5555 7.85989L12.2035 8.89147L13.1004 8.25287L14.0224 8.89147L13.6704 7.85989L14.5672 7.2131H13.4608L13.1004 6.16515ZM17.8362 6.16515L17.4842 7.2131H16.3694L17.2747 7.85989L16.9394 8.89147L17.8362 8.25287L18.7415 8.89147L18.3811 7.85989L19.3031 7.2131H18.1715L17.8362 6.16515ZM3.67056 2.02246L3.30175 3.05404H2.19531L3.09219 3.70082L2.75691 4.74059L3.67056 4.09381L4.55906 4.74059L4.21539 3.70082L5.12904 3.05404H4.00584L3.67056 2.02246ZM8.38128 2.02246L8.02923 3.05404H6.9228L7.81968 3.70082L7.4844 4.74059L8.38128 4.09381L9.28654 4.74059L8.95126 3.70082L9.84814 3.05404H8.72494L8.38128 2.02246ZM13.1004 2.02246L12.7651 3.05404H11.6335L12.5555 3.70082L12.2035 4.74059L13.1004 4.09381L14.0224 4.74059L13.6704 3.70082L14.5672 3.05404H13.4608L13.1004 2.02246ZM17.8362 2.02246L17.4842 3.05404H16.3694L17.2747 3.70082L16.9394 4.74059L17.8362 4.09381L18.7415 4.74059L18.3811 3.70082L19.3031 3.05404H18.1715L17.8362 2.02246Z" fill="white"/>
</g>
<defs>
<clipPath id="clip0_1_252">
<rect width="43" height="28" rx="4" fill="white"/>
</clipPath>
</defs>
</svg>
